# xmcd
#
# Track frame offsets:
#	150
#	11039
#	25017
#	39678
#	60311
#	77386
#	97596
#	111733
#	128483
#	146949
#	168091
#	180156
#	198055
#	212752
#
# Disc length: 3083 seconds
#
# Revision: 1
# Processed by: cddbd v1.5.2PL0 Copyright (c) Steve Scherf et al.
# Submitted via: audiograbber 1.83.01
#
DISCID=a70c090e
DTITLE=Bob Wire - American Piehole
DYEAR=2006
DGENRE=
TTITLE0=Laundromat
TTITLE1=Too Tired to Cheat
TTITLE2=Thicker Than Money
TTITLE3=White Trash Paradise
TTITLE4=Tucson
TTITLE5=King of the Honky Tonk
TTITLE6=Cold Blooded Killer
TTITLE7=Dirty Paradise
TTITLE8=Rio De Muerte
TTITLE9=All Liquored Up
TTITLE10=As For Me
TTITLE11=She Took A Powder
TTITLE12=Clean Livin
TTITLE13=Saigon
EXTD=
EXTT0=
EXTT1=
EXTT2=
EXTT3=
EXTT4=
EXTT5=
EXTT6=
EXTT7=
EXTT8=
EXTT9=
EXTT10=
EXTT11=
EXTT12=
EXTT13=
PLAYORDER=
